<?xml version="1.0" encoding="UTF-8" standalone="no"?>
<svg
   xmlns:dc="http://purl.org/dc/elements/1.1/"
   xmlns:cc="http://creativecommons.org/ns#"
   xmlns:rdf="http://www.w3.org/1999/02/22-rdf-syntax-ns#"
   xmlns:svg="http://www.w3.org/2000/svg"
   xmlns="http://www.w3.org/2000/svg"
   xmlns:sodipodi="http://sodipodi.sourceforge.net/DTD/sodipodi-0.dtd"
   xmlns:inkscape="http://www.inkscape.org/namespaces/inkscape"
   width="43.111561in"
   height="15.505283in"
   viewBox="0 0 3104.0355 1116.3824"
   version="1.1"
   id="svg3"
   sodipodi:docname="all.svg"
   inkscape:version="0.92.4 (f8dce91, 2019-08-02)">
  <metadata
     id="metadata9">
    <rdf:RDF>
      <cc:Work
         rdf:about="">
        <dc:format>image/svg+xml</dc:format>
        <dc:type
           rdf:resource="http://purl.org/dc/dcmitype/StillImage" />
      </cc:Work>
    </rdf:RDF>
  </metadata>
  <defs
     id="defs7" />
  <sodipodi:namedview
     pagecolor="#ffffff"
     bordercolor="#666666"
     borderopacity="1"
     objecttolerance="10"
     gridtolerance="10"
     guidetolerance="10"
     inkscape:pageopacity="0"
     inkscape:pageshadow="2"
     inkscape:window-width="4320"
     inkscape:window-height="2304"
     id="namedview5"
     showgrid="false"
     inkscape:zoom="0.5"
     inkscape:cx="1671.1559"
     inkscape:cy="0.27033442"
     inkscape:window-x="3584"
     inkscape:window-y="60"
     inkscape:window-maximized="1"
     inkscape:current-layer="svg3" />
  <path
     id="all"
     d="m 1,1020.5948 h 27 l 7.59,-1.02 7.64,-14.98 22.49,-52.00001 13.05,-30 5.87,-11.4 8.36,-1.6 h 135 l 8.61,1.6 6.81,13.4 13.43,31 21,49.00001 7.56,14.98 7.59,1.02 h 29 l -12.15,-29.00001 -22.43,-52 -73.84,-172 -25.81,-60 -8.41,-17.01 -7.36,-0.99 h -24 l -5.51,1.02 -8.34,16.98 -25.15,59 -73.42,172 -21.86,51 z M 377,689.59479 v 331.00001 h 32 V 689.59479 Z m 112,0 v 331.00001 h 23 c 1.99,0 5.81,0.23 7.4,-1.02 2.53,-2.01 1.6,-15.4 1.6,-18.98 v -62.00001 -249 z m 140,0 v 86 h -52 v 21 c 0.05,7.33 0.67,7.95 8,8 h 44 v 216.00001 h 32 V 804.59479 h 58 v -29 h -58 v -86 z m -468,40 7.42,16 13,31 42.58,102 H 97 l 42.58,-100 14.14,-33 z m 828,249 c 1.9,6.69 0.95,25.91001 1,34.00001 0.04,6.43 0.16,7.87 7,8 h 17 c 6.74,-0.01 8.86,0.49 9,-7 v -50.00001 -188 h -33 v 42 c -6.69,-9.95 -14.39,-18.83 -24,-26.1 -42.93,-32.5 -109.85,-27.79 -152,3.58 -30.97,23.04 -50.55,61.92 -51,100.52 -0.56,48.77 26.09,94.68 70,116.63001 13.35,6.68 29.18,11.26 44,13.31 h 8 l 8,1.05 c 4.87,0.11 6.5,-0.39 11,-0.82 24.88,-2.41 46.36,-9.06 66,-25.25 7.47,-6.16001 14.68,-13.13001 19,-21.92001 z m 321,-3 c 1.55,5.47 1.01,11.35 1,17 l -0.91,12.00001 c -1.24,17.69 -4.49,32.02 -14.61,47 -24.35,36.06 -75.33,43.89 -113.48,27.57 -15.92,-6.81 -28.82,-18.63 -38.85,-32.57 -2.72,-3.79 -5.79,-8.83 -7.88,-13 -0.92,-1.84 -2.42,-5.87 -3.97,-7.01 -1.69,-1.25 -5.24,-0.99 -7.3,-0.99 h -26 c 1.59,10.31 8.25,24.03 13.6,33 42.59,71.44 162.74,78.79 210.96,10 22.74,-32.44 20.44,-71.38001 20.44,-109.00001 v -184 h -32 v 44 c -8.83,-13.13 -16.79,-22.27 -30,-31.25 -44.54,-30.31 -107.9,-22.82 -148,11.55 -31.89,27.33 -45.19,62.52 -45,103.7 0.05,11.25 2.78,25.33 6.33,36 13.33,39.97 45.12,70.00001 85.67,81.57001 9.36,2.67 17.41,3.67 27,4.6 l 8,0.82 c 4.9,0.11 6.46,-0.37 11,-0.82 25.08,-2.51 49.53,-10.16 68,-28.18001 6.24,-6.1 13.3,-13.52 16,-21.99 z m 127,-28 h -32 c 0,21.65 3.73,39.56 19.17,55.96001 28.79,30.59 89.54,30.77 116.74,-1.97 14.67,-17.67001 16.34,-35.16001 16.09,-56.99001 -0.07,-5.95 -1.4,-13.41 -3.44,-19 -2.32,-6.39 -4.37,-10.41 -8.28,-16 -11.75,-16.79 -31.4,-26.1 -50.28,-32.66 -8.88,-3.08 -17.49,-5.45 -26,-9.6 -20.01,-9.75 -32.25,-28.23 -20.48,-49.74 12.41,-22.69 42.53,-25.92 59.15,-6 3.72,4.46 5.71,9.48 7.29,15 0.68,2.38 1.03,7.6 2.78,9.01 1.55,1.25 5.31,0.99 7.26,0.99 h 24 c -0.02,-20.31 -7.39,-38.34 -23,-51.7 -25.99,-22.25 -70.76,-20.47 -94.96,3.74 -14.52,14.52 -19.27,33.08 -19.04,52.96 0.06,5.14 1.03,10.07 2.43,15 9.45,33.33 40.6,40.61 68.57,51.8 23.22,9.29 42.32,18.78 42,47.2 -0.28,24.79 -16.33,38.74 -40,41.16 -9.73,1 -19.61,-0.84 -28,-6.11 -14.6,-9.17 -19.95,-26.63 -20,-43.05 z m -554,-148.72 c 15.98,-1.48 33.06,0.12 48,6.17 63.54,25.74 81.11,110.26 35.83,160.55 -6.96,7.73 -16.62,15.34 -25.83,20.22 -10.23,5.42 -21.51,9.06 -33,10.49 -33.53,4.18001 -67.34,-6.58 -89.7,-32.71 -35.22,-41.15 -29.24,-112.48 14.7,-145.24 16.09,-11.99 30.46,-16.61 50,-19.48 z m 322,0.01 c 14.14,-1.33 30.68,0.07 44,5.17 9.78,3.75 18.95,9.12 27,15.82 43.58,36.31 47.99,100.29 12.38,143.72 -7.33,8.95 -16.28,16.49 -26.38,22.14 -9.44,5.27 -21.26,9.25 -32,10.57 -14.31,1.77 -29.16,0.99 -43,-3.46 -9.41,-3.01 -20.22,-8.64 -28,-14.67 -53.35,-41.41 -51.7,-126.41 5,-164.23 13.63,-9.09 24.99,-12.62 41,-15.06 z"
     inkscape:connector-curvature="0"
     style="fill:#444331;fill-opacity:1;stroke:none;stroke-width:1"
     sodipodi:nodetypes="ccccccccccccccccccccccccccccccccccccscsccccccccccccccccccccccccccccccccccccccccccccccccccccscccsccccccccccccccccccccccccccscccccccccccccccccccccccccccc" />
  <path
     style="display:inline;fill:#8ab31d;fill-opacity:1;stroke:none;stroke-width:1"
     inkscape:connector-curvature="0"
     d="m 468,71.594795 25,-10 c -6.41,19.18 -22.08,48.669995 -32.95,65.999995 -2.43,3.87 -11.46,19.19 -14.37,20.98 -2.51,1.54 -9.6,1.86 -12.68,2.1 l -21,2.2 -38,3.72 -13,0.97 -14,-0.97 -28,-1.17 -19,-1.82 -37,2.82 -41,4.17 c -28.53,5.78 -73.83,23.02 -99,37.43 l -21,14.61 -20,12.44 c -27.49,20.46 -47.82,55.77 -48,90.52 l -0.91,13 c -0.45,6.46 -0.13,8.12 -1.54,15 -3.36,16.44 -13.85,30.51 -31.55,32 13.32,5.28 28.97,-9.36 34.68,-20 8.15,-15.19 8.56,-36.02 13.75,-53 5.47,-17.85 15.57,-31 28.57,-44 -1.74,6.89 -2.99,23.7 -3,31 l -2.84,55 c -1.34,12.61 -2.83,25.44 -8.42,37 -9.7,20.09 -25.08,36.61 -39.91,53 -5.62,6.21 -17.6,15.09 -17.22,24 l 5.12,22 2.27,28 2,30 c 0,3.1 -0.45,9.12 1.02,11.72 0.84,1.47 2.71,3.15 4,4.26 10.36,9.03 25.96,8.28 37.98,3.02 -1.8,-4.7 -3.69,-8.36 -8.01,-11.3 -5.22,-3.56 -15.16,-3.02 -17.85,-11.7 -0.17,-1.68 -0.13,-4.23 0,-6 v -27 c -0.14,-6.02 -0.65,-12.23 1.41,-18 1.98,-5.54 5.54,-9.73 9.45,-14 l 5.9,37 c 0.15,3.44 -0.49,4.97 -0.73,8 -0.6,7.9 8.43,16.08 15.83,17.39 2.81,0.65 4.31,0.2 7,0 7.37,-0.94 10.32,1.1 11.55,-6.39 2.59,-15.76 -12.71,-8.71 -18.81,-18.04 -2.46,-3.77 -1.1,-6.9 -0.78,-10.96 v -17 c 0.06,-13.94 3.81,-30.43 11.81,-42 14.96,-21.61 54.92,-39.13 73.94,-61 12.55,-14.43 12.71,-22.62 19.72,-39 6.76,-15.82 15.71,-32.44 24.89,-47 3.62,-5.75 13.88,-21.82 18.77,-25.3 4.67,-3.34 24.02,-6.82 29.91,-6.38 23.87,1.8 56.51,17.78 76,31.4 l 25,20.24 c 11.61,8.07 25.67,13.28 39,17.71 8.62,2.86 22.03,6.71 31,6.78 3.15,0.02 4.86,-0.07 8,0.85 10.79,3.17 10.53,15.28 12.08,24.7 2.67,16.29 5.89,46.77 5.92,63 l 1,15 2.96,32 c -0.25,6.66 -4.13,11.92 -2.53,18 0.96,3.64 4.13,6.63 6.04,10 l 7.69,19 c 3.47,10.43 -0.13,20.92 4.35,25.57 3.51,3.64 10.75,2.02 15.49,2.61 6.42,0.8 7.68,3.6 16,3.81 4.57,0.11 16.82,-0.45 16.63,-7.03 -0.12,-4.21 -4.85,-7.72 -7.12,-10.96 -3.39,-4.84 -1.79,-8.04 -7.55,-12.04 -3.7,-2.56 -9.72,-3.87 -12.03,-7.18 -1.56,-2.23 -4.31,-12.58 -5.22,-15.78 -2.04,-7.18 -5.14,-20.73 -5.14,-28 0,-6.89 3.17,-20.69 4.63,-28 l 16.38,-76 6.95,-55 13.04,-36 4.9,-26 c 3.56,-9.32 11.52,-16.77 15.81,-31 L 557.42,94.594795 c 0.84,-3.76 1.6,-7.86 4.01,-10.96 3.23,-4.16 9.94,-7.69 14.57,-10.32 l 34,-17.6 c 6.42,-3.73 13.45,-10.31 16.59,-17.12 l 3.83,-13 c 1.4,-3.7 4.86,-11.45 5.16,-15 C 636.03,5.3047946 632.81,-0.1852054 627,0.0047946 l -14,3.17 c -12.26,2.7 -30.79,6.4500003 -43,4.16 -7.87,-1.47 -17.25,-6.14 -25,-5.56 l -10,1.65 c -9.18,0.92 -18.38,0.74 -27,4.69 -6.94,3.1800004 -9.44,7.9000004 -14,10.5500004 -4.07,2.36 -13.67,3.93 -19.26,12.93 -3.95,6.36 0.29,15.64 -0.58,23 -0.8,6.78 -4.82,10.39 -6.16,17 z m 535,21 -32.98,43.999995 c -13.26,19.22 -22.44,37.01 -43.02,50.3 -13.13,8.48 -32.9,15.07 -48,19.41 l -25,6.87 -73,11.29 c -15.04,2.09 -48.17,6.5 -61,12 l -13,6.72 c -13.65,5 -21.4,5.51 -34,14.89 -7.63,5.68 -15.99,16.83 -22.2,24.52 -5.68,7.05 -16.03,20.36 -13.37,30 1.69,6.12 8.42,7.39 13.56,4.69 3.88,-2.05 8.27,-8.25 11.3,-11.69 4.85,-5.53 7.69,-7.93 13.71,-12 -3.96,19.7 -3.03,19.28 -3,39 l 1,16 c 0.06,11.85 -0.12,18.47 -4.08,30 -4.88,14.24 -14.88,33.41 -24.38,45 -6.08,7.41 -17.1,15.52 -20.53,24 -4.6,12.03 -0.16,23.83 0,36 v 24 c -0.69,5.38 -2.11,12.89 0,18 1.45,3.22 5.59,8.24 7.91,11 10.43,12.39 19.93,17.22 36.08,14.71 3.08,-0.48 13.27,-3.04 15,-5.41 2.43,-3.31 -0.85,-12.99 -4.22,-14.87 -5.65,-3.15 -22.49,0.89 -26.99,-12.43 -3.48,-10.27 -3.42,-30.19 -1.92,-41 0.73,-5.22 1.36,-10.38 4.11,-15 6.02,-10.12 22.55,-22.31 32.02,-30 l 1,14 v 36 l 1.51,21 c 1.27,4.29 11.59,17 15.49,18.98 2.4,1.21 5.37,1.01 8,1.02 h 35 c -1.18,-5.86 -3.3,-14.73 -9.04,-17.69 -6.63,-3.42 -23.96,1.26 -26.8,-9.31 -0.23,-1.5 -0.19,-5.33 0,-7 l 3.76,-28 c 0.91,-5.43 1.87,-12.39 4.93,-17 9.41,-14.19 36.29,-29.03 50.06,-44 10,-10.88 17.58,-27.67 23.87,-41 3.2,-6.79 10.66,-22.38 12.22,-29 35.95,12.55 67.01,40.54 106,41.01 h 13 c 1.96,-0.22 4.84,-0.9 6.58,0 2.6,1.59 3.89,8.13 4.71,10.99 l 8.58,31 c 2.96,11.76 6.11,23.8 6.13,36 0.02,12.68 -0.74,35.36 1.47,47 1.08,5.7 5.25,11.89 7.48,18 l 7.19,24.69 c 2.31,3.18 5.96,1.77 10.86,3.57 4.82,1.77 6.35,4.76 10,6.57 2.9,1.43 6.81,1.2 10,1.17 5.08,-0.06 13.2,-1.69 18,-3.36 2.3,-0.81 5.26,-1.87 5.41,-4.75 0.3,-5.44 -8.09,-11.3 -11.41,-14.89 8.25,-1.27 15.88,-2.8 11.03,-12.96 -4.11,-8.61 -16.87,-3.41 -22.52,-8.62 -2.54,-2.34 -4.55,-10.91 -5.3,-14.42 -3.52,-16.57 -1.3,-25.63 1.06,-42 l 4.79,-33 v -10 l 5.69,-32 2.69,-20 4.12,-15 3.69,-31 c 2.47,-14.21 7.12,-17.74 10.09,-31 l 4.62,-30 -0.78,-14 1.78,-12 c 0.2,-5.03 -0.57,-6.63 -0.87,-11 -0.93,-13.57 0.38,-31.43 10.12,-41.94 4.58,-4.94 11.68,-5.05 17.79,-7.06 2.67,-0.88 6.21,-2.45 9,-1.75 4.3,1.09 7.73,6.28 16,6.71 2.59,0.13 5.58,0.01 8,-0.97 6.82,-2.76 14.17,-14.05 16.07,-20.99 0.99,-3.62 0.92,-6.33 0.93,-10 l 0.56,-14.89 c -1.21,-4.33 -5,-3.85 -8.56,-4.28 -3.79,-0.46 -9.85,-1.98 -12.77,-4.48 -4.15,-3.53 -2.11,-6.39 -5.79,-12.349995 -2.59,-4.19 -13.33,-15.62 -17.28,-20 -3.15,-3.49 -6.57,-7.64 -11.16,-9.43 -4.61,-1.49 -8.41,0.57 -12,0 l -11,-4.58 c -5.14,-1.46 -19.95,-1.51 -25,0 -6.13995,1.97 -17.46,9.3 -15.17,17.01 1.46,4.91 7.83,8.87 12.17,11 z m 138,166.929995 -5,11.07 c 3.54,4.76 0.55,6.86 7,8 0.01,2.23 -0.15,5.78 0.74,7.79 1.53,3.49 4.05,2.78 8,10.21 2.76,5.19 4.27,9.33 8.56,13.71 13.62,13.9 39.16,19.91 57.7,14.25 10.44,-3.19 22.99,-12.58 32,-18.96 l -9.72,51 -3.64,39 c -2.55,7.82 -9.65,17.3 -15.65,22.83 -6.26,5.78 -11.82,6.88 -11.99,16.17 l 2.28,32 c 0.95,7.95 3.76,35.2 6.37,41 1.53,3.41 3.68,5 5.51,8 2.51,4.1 1.96,7.32 8.84,11.09 6.7,3.65 26.79,3.95 35,3.91 3.45,-0.02 4.64,-0.05 8,-1 -0.92,-3.44 -2.04,-10.68 -4.53,-13.03 -3.93,-3.7 -21.05,-7.36 -26.62,-15.06 -3.12,-4.33 -4.24,-12.62 -4.98,-17.91 -0.73,-5.26 -2.77,-16.28 -1.17,-21 1.77,-5.25 6.92,-9.47 11.3,-12.56 11.78,-8.31 18.84,-10.29 33,-11.44 0,7.5 -0.97,19.5 2.44,26 2.93,5.58 7.84,8.53 12.56,12.28 6.61,5.25 13.16,10.57 18.96,16.72 9.1,9.65 4.29,14.63 14.04,19.03 10.59,4.78 18.69,2.09 29,1.97 h 10 c 9.25,-0.12 18.27,-4.68 8.89,-13.87 -9.35,-9.16 -23.08,-2.12 -35.89,-13.31 -3.76,-3.29 -7.19,-7.02 -10.42,-10.82 -2,-2.34 -4.62,-5.1 -5.69,-8 -1.35,-3.67 -0.19,-7.39 0.74,-11 0.72,-2.79 1.4,-5.56 3.07,-7.96 4.94,-7.11 24.88,-16.43 33.3,-20.18 4.33,-1.93 10.08,-4.05 13.48,-7.39 8.75,-8.56 13.37,-31.61 16.52,-43.47 0.25,1.75 0.23,4.81 1.63,5.98 1.58,1.32 4.29,0.59 7.95,2.2 7.58,3.36 14.43,3.15 22.42,4.76 l 19,3.77 c 7.72,-0.22 15.6,-8.62 18,2.29 2.08,-0.36 5.93,-1.57 7.78,-0.77 4.35,1.88 1.85,6.9 10.22,8.77 0,13.35 -0.86,30.15 1.28,43 l 12.12,48 c 1.77,8.8 4.04,28 11.69,32.99 3.51,2.29 10.73,2.96 14.91,3.01 l 19,-1 c 0,4.03 -1.02,12.5 2.31,15.15 3.27,2.59 13.35,1.85 17.69,1.85 h 31 c 5.92,0 12.29,0.62 18,-1 -0.72,-3.51 -1.57,-7.97 -4.39,-10.44 -2.99,-2.61 -10.45,-2.79 -14.61,-3.8 -7.47,-1.81 -13.82,-5.42 -18.36,-11.76 -5.94,-8.29 -5.79,-18.4 -7.06,-28 l -6.86,-54 c -0.83,-6.38 -3.26,-24.6 -1.79,-30 3.2,-11.81 15.76,-15.61 25.07,-21.46 4.58,-2.89 9.23,-7.55 12.91,-11.54 9.97,-10.84 21.48,-33.27 27.78,-47 3.42,-7.44 6.55,-15.1 11.01,-22 7.63,-11.81 23.09,-24.99 25.3,-39 5,1.17 11.59,3.73 16,6.35 9.52,5.66 5.13,7.71 18,7.65 8.45,-0.04 11.96,-3.03 5.59,-10.83 l -6.55,-7.18 -8.04,-10.99 c 10.25,-1.05 20.24,6.89 30,6.82 4.75,-0.04 16.29,-5.01 21,-7.1 2.63,-1.17 5.67,-2.45 7.4,-4.85 3.11,-4.31 1.72,-14.64 -1.25,-18.78 -5.45,-7.57 -15.45,-8.47 -22.14,-12.45 -5.98,-3.57 -6.13,-7.28 -10.22,-11.46 l -8.27,-6.47 c -3.19,-3.63 0.96,-3.5 -2.37,-12.71 l -6.15,-13.91 -4.73,-6.18 -3.71,-9.87 c -3,-5.43 -7.85,-6.56 -13.56,-7.04 2.22,-11.85 8.07,-11.79 10.42,-29 0.56,-4.06 2.02,-9.95 -3.48,-10.85 -9.33,-1.53 -14.62,4.98 -20.94,10.43 -2.99,2.57 -7.68,6.88 -11,8.66 -3.19,1.7 -5.3,1.51 -7.96,3.34 -2.29,1.58 -8.85,9.81 -10.85,12.42 -4.87,6.33 -1.16,7.42 -5.37,11.47 l -16.82,10.93 -21,12.34 -21,10.12 -20,13.62 c -11.97,8.02 -27.46,14.5 -42,14.48 h -15 l -10,-0.96 c -24.89,-0.29 -39.6,3.94 -63,6.72 l -49,3.45 -33,3.11 -19,2.21 c -6,-0.38 -12.11,-0.25 -18,1.27 -13.56,3.5 -33.19,18.69 -45,26.96 -14.13,9.89 -10.95,8.09 -27,12.43 -2.99,0.81 -9.14,2.96 -12,2.45 -6.09,-1.1 -7.21,-8.59 -8.2,-13.6 -0.58,-2.98 -2.31,-10.38 -1.52,-13 0.76,-2.54 4.15,-6.18 5.58,-11 1.72,-5.8 -1.07,-4.73 3.4,-14 1.76,-3.66 8.82,-13.96 2.59,-16.36 -3.04,-1.18 -13.42,1.83 -16.85,2.78 l -34,9.58 c -5.52,1.82 -10.81,3.23 -14.57,8.04 -5.2,6.64 -1.44,12.26 -2.32,15.96 -0.95,4.04 -13.61,14.23 -4.05,15.93 z m 615,259.07 c 4.86,-11.09 7.39,-25.37 17.01,-33.38 2.5,-2.08 7.55,-6 10.95,-5.8 4.11,0.24 7.48,8.67 7.13,12.18 -0.28,2.83 -3.35,7.12 -4.56,10 -2.62,6.22 -2.74,17.51 2.68,22.24 3.59,3.13 7.6,4.18 11.79,6.07 4.21,1.9 9.68,5.16 14,6.16 l 10,1.54 27,7.7 c 6.65,0.87 14.44,0.89 18.08,-5.75 0.93,-1.71 1.73,-3.81 1.08,-5.75 -2.56,-7.67 -20.01,-6.49 -26.16,-8.77 -7.82,-2.89 -13.52,-10.96 -20,-16.44 8.12,-8.22 7.5,-10.61 9.51,-12.41 2.03,-1.82 14.84,-4.58 17.49,-3.85 5.08,1.41 7.31,5.63 16,7.26 -1.26,-12.39 6.44,-10.53 13,-11.17 l 10,-1.73 c 16.93,-4.13 20.54,-9.13 40,-9.1 11.87,0.02 9.27,2.25 19,6.07 5.26,2.07 11.38,2.9 17,2.93 10.64,0.05 13.36,-1.72 14,6 -13.34,1.89 -7.99,5.82 -12.58,13 -1.84,2.88 -5.16,5.42 -5.72,9 -0.86,5.46 6.31,10.47 11.3,9.4 4.97,-1.08 6.85,-6.19 11.04,-7.8 l 6.96,-1.03 c 3.28,-0.85 5.06,-2.8 8,-3.85 3.74,-1.33 4.09,0.21 14,-3.72 1.09,6.04 1.28,13.2 6.21,17.58 3.65,3.25 7.33,3.11 11.79,3.58 l 16,1.13 c 7.29,0.95 10.31,2.9 18,0.71 -0.75,-3.98 -1.37,-8.62 -4.39,-11.59 -3.65,-3.57 -10.6,-3.82 -16.23,-10.45 -7.57,-8.91 -5.41,-10.29 -6.56,-19.96 -0.55,-4.6 -1.52,-4.78 -1.82,-11 h 2 c 0.07,2.24 0.02,3.83 0.84,6 3.23,8.51 16.74,22.4 24.16,27.7 3.69,2.64 10.34,5.89 15,4.83 5.74,-1.31 8.89,-7.72 11.24,-12.53 1.82,-3.73 2.32,-4.86 2.76,-9 l 3.69,6.96 c 1.86,2.61 3.95,4 6.14,6.21 6.17,6.19 8.56,10.61 18.17,11.66 10.2,1.11 11.31,-1.75 17,-2.46 6.55,-0.83 16.51,5.51 19.78,-5.39 0.2,-1.45 0.2,-3.46 0,-4.98 0.3,-5.95 0.67,-12.33 -1.33,-18 -1.61,-4.57 -5.54,-10.47 -6.08,-15 -0.7,-5.94 5.48,-13.05 4.2,-20 -0.88,-4.77 -4.21,-6.35 -5.87,-10.09 -1.27,-2.85 -2.01,-10.59 -5.65,-16.91 -5.72,-9.92 -11.76,-12.97 -21.05,-18.81 -3.43,-2.15 -7.19,-5.21 -11,-6.39 -2.93,-0.9 -5.97,-0.79 -9,-0.8 -12.95,-0.02 -9.82,-1.74 -21,-5.66 l -31,-9.46 c -23.56,-6.19 -56.59,-9.16 -81,-8.88 l -58,6 -10,0.91 -30,2.37 -25,4.47 -33,4.08 c -6.34,0.53 -12.04,-2.32 -18,-4.11 -9.41,-2.83 -31.8,-8.83 -41,-8.21 l -49,8.57 -26,6.78 c -2.48,0.71 -7.66,1.82 -8.75,4.4 -0.95,2.23 0.75,3.83 2.86,4.14 l 15.89,-1.4 h 4 l 45,-4 c 10.47,-0.12 13.64,-0.4 24,2.13 2.5,0.61 6.65,1.48 8.55,3.21 1.15,1.04 4.67,11.18 4.48,12.66 -0.31,2.28 -3.9,7.32 -5.13,10 -3.03,6.57 -7.24,17.3 -11.53,22.96 -5.56,7.31 -16.29,7.32 -19.42,16.04 -1.82,4.19 0.09,18.12 0,23.72 0.33,5.58 -0.54,10.82 -1.56,16.28 -0.45,2.4 -1.59,6.54 -0.75,8.82 1.28,3.46 5.3,4.01 8.56,8.28 3.42,4.47 5.28,8.06 11.8,8.65 7.64,0.69 11.57,-7.46 8.97,-11.43 -1.53,-2.35 -7.05,-2.46 -9.97,-3.32 z m 343,-42 -3,14 c -1.18,-4.23 1,-10.18 3,-14 z m -475,213 v 331.00001 h 33 V 865.59479 h 170 v 146.00001 l 1.6,7.98 7.4,1.02 h 25 V 689.59479 h -34 v 145 h -170 v -145 z m 1125,0 v 128 c -7.42,-9.28 -11.52,-14.88 -21,-22.54 -25.08,-20.28 -51.6,-25.82 -83,-25.46 -22.18,0.26 -47.43,9.23 -66,21.05 -11.43,7.28 -20.22,15.46 -28.74,25.95 -49.55,61 -32.68,153.41 35.74,192.38001 38.26,22.09 92.13,23.02 130,0 11.91,-7.49 25.54,-18.84001 32,-31.38001 1.92,6.76 1,34.13001 1,43.00001 h 23 c 1.99,0 5.81,0.23 7.4,-1.02 2.53,-2.01 1.6,-15.4 1.6,-18.98 v -62.00001 -249 z m -477,117 -1,-31 h -32 v 245.00001 h 32 V 876.59479 c 0.23,-19.29 8.43,-43.09 22.17,-56.83 29.58,-29.58 79.18,-28.09 107.79,1.83 13.52,14.13 21.01,37.62 21.04,57 v 20 56 58.00001 c 0.06,8.13 1.27,7.98 9,8 h 23 V 908.59479 c 0,-36.57 1.5,-67.44 -21.04,-99 -17.26,-24.16 -48.35,-39.65 -77.96,-40 -16.08,-0.18 -27.52,-0.04 -43,5.59 -13.76,5 -34.13,17.66 -40,31.41 z m 825,133 h -26 c -11.88,0.08 -7.08,4.21 -17.92,19 -8.81,12.01 -20.56,22.27 -34.08,28.68 -12.36,5.86 -28.32,9.75 -42,10.28 -5.4,0.21 -14.68,-1.26 -20,-2.59 -37.92,-9.42 -74.11,-44.61 -75,-85.37 h 222 c 0,-11.42 0.4,-20.57 -1.44,-32 -4.61,-28.7 -19.98,-56.41 -41.56,-75.83 -10.09,-9.08 -26.16,-19.32 -39,-23.83 -12.66,-4.44 -26.49,-8.18 -40,-8.34 -15.87,-0.18 -30.9,1.43 -46,6.69 -52.96,18.48 -87.65,68.42 -87,124.31 0.15,12.79 3.56,31.08 8.2,43 6.01,15.41 14.57,29.84 25.89,42 40.76,43.81001 107.72,52.85001 158.91,22.40001 12.46,-7.42 23.95,-17.05001 33,-28.40001 9.03,-11.33 18.2,-25.92 22,-40 z m -1153,-164 v 141 l 0.91,10 c 1.42,20.23 5.28,40.84 16.84,58 16.12,23.94001 48.38,40.66001 77.25,41.00001 16.29,0.19 26.08,0.91 42,-4.02 17.74,-5.5 39.17,-20.13 46,-37.98001 l 1,28.00001 1.02,7.4 5.98,1.6 h 23 V 775.59479 h -31 v 130 l -0.91,10 c -1.23,17.97 -3.23,33.72 -14,49 -8.24,11.68 -17.99,20.78 -31.09,26.69 -27.46,12.38001 -66.55,6.26 -86.82,-16.69 -12.48,-14.14 -18.09,-39.46 -18.18,-58 v -141 z m 709,22.45 c 17.5,0.65 31.43,3.31 47,11.86 10.86,5.97 20.29,14.02 28,23.69 31.92,40.03 30.5,99.16 -6.17,135.83 -10.18,10.18 -22.47,17.3 -35.83,22.36 -10.26,3.88 -24.04,5.93 -35,5.81 -22.9,-0.27 -47.85,-8.85 -65,-24.17 -17.86,-15.95 -31.71,-42.54 -32,-66.83 v -16 c 0.08,-17.14 7.61,-38.07 17.44,-52 15.92,-22.57 40.63,-35.71 67.56,-39.57 z m 419,82.55 h -190 c 8.82,-65.39 80.89,-102.25 139,-71.68 17.17,9.03 31.9,23.26 40.63,40.68 5.34,10.66 7.38,19.74 10.37,31 z"
     id="path4623"
     sodipodi:nodetypes="ccccccccccccccccccccccccccccccccccccccccccccccccccccccccccccccccccccccccccscccccccccccccccccccccccccccccccccccccccccccccccccccccccccccccccccccccccccccccccccccccccccccccccccccccccccccccccccccccccccccccccccccccccccccccccccccccccccccccccccccccccssccccccccccccccccccccccccccccccccccccccccccccccccccccccccccccccccccccccccccccccccccccccccccccccccccccccccccccccccccccccccccccccccccccccccccccccccccccccccccccccccccccccccccccccccccscscccccccccscccccccscccccccccccccccccccccccccccccccccccccccccccccccsccccccccccccc" />
</svg>
