<?xml version="1.0" encoding="UTF-8" standalone="no"?>
<svg
   xmlns:dc="http://purl.org/dc/elements/1.1/"
   xmlns:cc="http://creativecommons.org/ns#"
   xmlns:rdf="http://www.w3.org/1999/02/22-rdf-syntax-ns#"
   xmlns:svg="http://www.w3.org/2000/svg"
   xmlns="http://www.w3.org/2000/svg"
   xmlns:sodipodi="http://sodipodi.sourceforge.net/DTD/sodipodi-0.dtd"
   xmlns:inkscape="http://www.inkscape.org/namespaces/inkscape"
   width="43.097672in"
   height="5.9275913in"
   viewBox="0 0 3103.0355 426.78734"
   version="1.1"
   id="svg3"
   sodipodi:docname="logo-text-light.svg"
   inkscape:version="0.92.4 (f8dce91, 2019-08-02)">
  <metadata
     id="metadata9">
    <rdf:RDF>
      <cc:Work
         rdf:about="">
        <dc:format>image/svg+xml</dc:format>
        <dc:type
           rdf:resource="http://purl.org/dc/dcmitype/StillImage" />
      </cc:Work>
    </rdf:RDF>
  </metadata>
  <defs
     id="defs7" />
  <sodipodi:namedview
     pagecolor="#ffffff"
     bordercolor="#666666"
     borderopacity="1"
     objecttolerance="10"
     gridtolerance="10"
     guidetolerance="10"
     inkscape:pageopacity="0"
     inkscape:pageshadow="2"
     inkscape:window-width="4320"
     inkscape:window-height="2304"
     id="namedview5"
     showgrid="false"
     inkscape:zoom="0.5"
     inkscape:cx="169.82257"
     inkscape:cy="0.27032936"
     inkscape:window-x="3584"
     inkscape:window-y="60"
     inkscape:window-maximized="1"
     inkscape:current-layer="svg3" />
  <path
     id="all"
     d="m 0,331.00001 h 27 l 7.59,-1.02 7.64,-14.98 L 64.72,263 77.77,233 83.64,221.6 92,220 h 135 l 8.61,1.6 6.81,13.4 13.43,31 21,49.00001 7.56,14.98 7.59,1.02 h 29 L 308.85,302 286.42,250 212.58,78 186.77,18 178.36,0.99 171,0 H 147 L 141.49,1.02 133.15,18 108,77 34.58,249 12.72,300 Z M 376,0 v 331.00001 h 32 V 0 Z m 112,0 v 331.00001 h 23 c 1.99,0 5.81,0.23 7.4,-1.02 2.53,-2.01 1.6,-15.4 1.6,-18.98 V 249 0 Z m 140,0 v 86 h -52 v 21 c 0.05,7.33 0.67,7.95 8,8 h 44 v 216.00001 h 32 V 115 h 58 V 86 H 660 V 0 Z m -468,40 7.42,16 13,31 L 223,189 H 96 L 138.58,89 152.72,56 Z m 828,249 c 1.9,6.69 0.95,25.91001 1,34.00001 0.04,6.43 0.16,7.87 7,8 h 17 c 6.74,-0.01 8.86,0.49 9,-7 V 274 86 h -33 v 42 c -6.69,-9.95 -14.39,-18.83 -24,-26.1 -42.93,-32.5 -109.85,-27.79 -152,3.58 -30.97,23.04 -50.55,61.92 -51,100.52 -0.56,48.77 26.09,94.68 70,116.63001 13.35,6.68 29.18,11.26 44,13.31 h 8 l 8,1.05 c 4.87,0.11 6.5,-0.39 11,-0.82 24.88,-2.41 46.36,-9.06 66,-25.25 C 976.47,304.76 983.68,297.79 988,289 Z m 321,-3 c 1.55,5.47 1.01,11.35 1,17 l -0.91,12.00001 c -1.24,17.69 -4.49,32.02 -14.61,47 -24.35,36.06 -75.33,43.89 -113.48,27.57 -15.92,-6.81 -28.82,-18.63 -38.85,-32.57 -2.72,-3.79 -5.79,-8.83 -7.88,-13 -0.92,-1.84 -2.42,-5.87 -3.97,-7.01 -1.69,-1.25 -5.24,-0.99 -7.3,-0.99 h -26 c 1.59,10.31 8.25,24.03 13.6,33 42.59,71.44 162.74,78.79 210.96,10 C 1344.3,346.56001 1342,307.62 1342,270 V 86 h -32 v 44 c -8.83,-13.13 -16.79,-22.27 -30,-31.25 -44.54,-30.31 -107.9,-22.82 -148,11.55 -31.89,27.33 -45.19,62.52 -45,103.7 0.05,11.25 2.78,25.33 6.33,36 13.33,39.97 45.12,70.00001 85.67,81.57001 9.36,2.67 17.41,3.67 27,4.6 l 8,0.82 c 4.9,0.11 6.46,-0.37 11,-0.82 25.08,-2.51 49.53,-10.16 68,-28.18001 6.24,-6.1 13.3,-13.52 16,-21.99 z m 127,-28 h -32 c 0,21.65 3.73,39.56 19.17,55.96001 28.79,30.59 89.54,30.77 116.74,-1.97 C 1554.58,294.32 1556.25,276.83 1556,255 c -0.07,-5.95 -1.4,-13.41 -3.44,-19 -2.32,-6.39 -4.37,-10.41 -8.28,-16 -11.75,-16.79 -31.4,-26.1 -50.28,-32.66 -8.88,-3.08 -17.49,-5.45 -26,-9.6 -20.01,-9.75 -32.25,-28.23 -20.48,-49.74 12.41,-22.69 42.53,-25.92 59.15,-6 3.72,4.46 5.71,9.48 7.29,15 0.68,2.38 1.03,7.6 2.78,9.01 1.55,1.25 5.31,0.99 7.26,0.99 h 24 c -0.02,-20.31 -7.39,-38.34 -23,-51.7 -25.99,-22.25 -70.76,-20.47 -94.96,3.74 -14.52,14.52 -19.27,33.08 -19.04,52.96 0.06,5.14 1.03,10.07 2.43,15 9.45,33.33 40.6,40.61 68.57,51.8 23.22,9.29 42.32,18.78 42,47.2 -0.28,24.79 -16.33,38.74 -40,41.16 -9.73,1 -19.61,-0.84 -28,-6.11 -14.6,-9.17 -19.95,-26.63 -20,-43.05 z M 882,109.28 c 15.98,-1.48 33.06,0.12 48,6.17 63.54,25.74 81.11,110.26 35.83,160.55 -6.96,7.73 -16.62,15.34 -25.83,20.22 -10.23,5.42 -21.51,9.06 -33,10.49 -33.53,4.18001 -67.34,-6.58 -89.7,-32.71 -35.22,-41.15 -29.24,-112.48 14.7,-145.24 16.09,-11.99 30.46,-16.61 50,-19.48 z m 322,0.01 c 14.14,-1.33 30.68,0.07 44,5.17 9.78,3.75 18.95,9.12 27,15.82 43.58,36.31 47.99,100.29 12.38,143.72 -7.33,8.95 -16.28,16.49 -26.38,22.14 -9.44,5.27 -21.26,9.25 -32,10.57 -14.31,1.77 -29.16,0.99 -43,-3.46 -9.41,-3.01 -20.22,-8.64 -28,-14.67 -53.35,-41.41 -51.7,-126.41 5,-164.23 13.63,-9.09 24.99,-12.62 41,-15.06 z"
     inkscape:connector-curvature="0"
     style="fill:#ffffff;fill-opacity:1;stroke:none;stroke-width:1"
     sodipodi:nodetypes="ccccccccccccccccccccccccccccccccccccscsccccccccccccccccccccccccccccccccccccccccccccccccccccscccsccccccccccccccccccccccccccscccccccccccccccccccccccccccc" />
  <path
     style="display:inline;fill:#8ab31d;fill-opacity:1;stroke:none;stroke-width:1"
     inkscape:connector-curvature="0"
     d="m 1623,0 v 331.00001 h 33 V 176 h 170 v 146.00001 l 1.6,7.98 7.4,1.02 h 25 V 0 h -34 V 145 H 1656 V 0 Z m 1125,0 v 128 c -7.42,-9.28 -11.52,-14.88 -21,-22.54 -25.08,-20.28 -51.6,-25.82 -83,-25.46 -22.18,0.26 -47.43,9.23 -66,21.05 -11.43,7.28 -20.22,15.46 -28.74,25.95 -49.55,61 -32.68,153.41 35.74,192.38001 38.26,22.09 92.13,23.02 130,0 11.91,-7.49 25.54,-18.84001 32,-31.38001 1.92,6.76 1,34.13001 1,43.00001 h 23 c 1.99,0 5.81,0.23 7.4,-1.02 2.53,-2.01 1.6,-15.4 1.6,-18.98 V 249 0 Z m -477,117 -1,-31 h -32 v 245.00001 h 32 V 187 c 0.23,-19.29 8.43,-43.09 22.17,-56.83 29.58,-29.58 79.18,-28.09 107.79,1.83 13.52,14.13 21.01,37.62 21.04,57 v 20 56 58.00001 c 0.06,8.13 1.27,7.98 9,8 h 23 V 219 c 0,-36.57 1.5,-67.44 -21.04,-99 -17.26,-24.16 -48.35,-39.65 -77.96,-40 -16.08,-0.18 -27.52,-0.04 -43,5.59 -13.76,5 -34.13,17.66 -40,31.41 z m 825,133 h -26 c -11.88,0.08 -7.08,4.21 -17.92,19 -8.81,12.01 -20.56,22.27 -34.08,28.68 -12.36,5.86 -28.32,9.75 -42,10.28 -5.4,0.21 -14.68,-1.26 -20,-2.59 -37.92,-9.42 -74.11,-44.61 -75,-85.37 h 222 c 0,-11.42 0.4,-20.57 -1.44,-32 -4.61,-28.7 -19.98,-56.41 -41.56,-75.83 -10.09,-9.08 -26.16,-19.32 -39,-23.83 -12.66,-4.44 -26.49,-8.18 -40,-8.34 -15.87,-0.18 -30.9,1.43 -46,6.69 -52.96,18.48 -87.65,68.42 -87,124.31 0.15,12.79 3.56,31.08 8.2,43 6.01,15.41 14.57,29.84 25.89,42 40.76,43.81001 107.72,52.85001 158.91,22.40001 12.46,-7.42 23.95,-17.05001 33,-28.40001 9.03,-11.33 18.2,-25.92 22,-40 z M 1943,86 v 141 l 0.91,10 c 1.42,20.23 5.28,40.84 16.84,58 16.12,23.94001 48.38,40.66001 77.25,41.00001 16.29,0.19 26.08,0.91 42,-4.02 17.74,-5.5 39.17,-20.13 46,-37.98001 l 1,28.00001 1.02,7.4 5.98,1.6 h 23 V 86 h -31 v 130 l -0.91,10 c -1.23,17.97 -3.23,33.72 -14,49 -8.24,11.68 -17.99,20.78 -31.09,26.69 -27.46,12.38001 -66.55,6.26 -86.82,-16.69 -12.48,-14.14 -18.09,-39.46 -18.18,-58 V 86 Z m 709,22.45 c 17.5,0.65 31.43,3.31 47,11.86 10.86,5.97 20.29,14.02 28,23.69 31.92,40.03 30.5,99.16 -6.17,135.83 -10.18,10.18 -22.47,17.3 -35.83,22.36 -10.26,3.88 -24.04,5.93 -35,5.81 -22.9,-0.27 -47.85,-8.85 -65,-24.17 -17.86,-15.95 -31.71,-42.54 -32,-66.83 v -16 c 0.08,-17.14 7.61,-38.07 17.44,-52 15.92,-22.57 40.63,-35.71 67.56,-39.57 z M 3071,191 h -190 c 8.82,-65.39 80.89,-102.25 139,-71.68 17.17,9.03 31.9,23.26 40.63,40.68 5.34,10.66 7.38,19.74 10.37,31 z"
     id="path4623"
     sodipodi:nodetypes="cccccccccccccccccccccccccscscccccccccscccccccscccccccccccccccccccccccccccccccccccccccccccccccsccccccccccccc" />
</svg>
